# Blender v2.79 (sub 0) OBJ File: 'alien3.blend'
# www.blender.org
mtllib alien3.mtl
o Plane
v -1.000000 0.272727 0.000000
v -1.000000 0.090909 0.000000
v -1.000000 -0.090909 -0.000000
v -1.000000 -0.272727 -0.000000
v -1.000000 -0.454546 -0.000000
v -0.818182 -1.000000 -0.000000
v -0.636364 -1.000000 -0.000000
v 0.636364 -1.000000 -0.000000
v 0.818182 -1.000000 -0.000000
v 1.000000 -0.454545 -0.000000
v 1.000000 -0.272727 -0.000000
v 1.000000 -0.090909 -0.000000
v 1.000000 0.090909 0.000000
v 1.000000 0.272727 0.000000
v -0.818182 -0.818182 -0.000000
v -0.818182 -0.636364 -0.000000
v -0.818182 -0.454545 -0.000000
v -0.818182 -0.272727 -0.000000
v -0.818182 -0.090909 -0.000000
v -0.818182 0.090909 0.000000
v -0.818182 0.272727 0.000000
v -0.636364 -0.818182 -0.000000
v -0.636364 -0.636364 -0.000000
v -0.636364 -0.454545 -0.000000
v -0.636364 -0.272727 -0.000000
v -0.636364 -0.090909 -0.000000
v -0.636364 0.090909 0.000000
v -0.636364 0.272727 0.000000
v -0.636364 0.454546 0.000000
v -0.454545 -0.818182 -0.000000
v -0.454545 -0.636364 -0.000000
v -0.454545 -0.454545 -0.000000
v -0.454545 -0.272727 -0.000000
v -0.454545 -0.090909 -0.000000
v -0.454545 0.090909 0.000000
v -0.454545 0.272727 0.000000
v -0.454545 0.454546 0.000000
v -0.272727 -0.636364 -0.000000
v -0.272727 -0.454545 -0.000000
v -0.272727 -0.272727 -0.000000
v -0.272727 -0.090909 -0.000000
v -0.272727 0.090909 0.000000
v -0.272727 0.272727 0.000000
v -0.090909 -0.636364 -0.000000
v -0.090909 -0.454545 -0.000000
v -0.090909 -0.272727 -0.000000
v -0.090909 -0.090909 -0.000000
v -0.090909 0.090909 0.000000
v -0.090909 0.272727 0.000000
v 0.090909 -0.636364 -0.000000
v 0.090909 -0.454545 -0.000000
v 0.090909 -0.272727 -0.000000
v 0.090909 -0.090909 -0.000000
v 0.090909 0.090909 0.000000
v 0.090909 0.272727 0.000000
v 0.272727 -0.636364 -0.000000
v 0.272727 -0.454545 -0.000000
v 0.272727 -0.272727 -0.000000
v 0.272727 -0.090909 -0.000000
v 0.272727 0.090909 0.000000
v 0.272727 0.272727 0.000000
v 0.454545 -0.818182 -0.000000
v 0.454545 -0.636364 -0.000000
v 0.454545 -0.454545 -0.000000
v 0.454545 -0.272727 -0.000000
v 0.454545 -0.090909 -0.000000
v 0.454545 0.090909 0.000000
v 0.454545 0.272727 0.000000
v 0.454545 0.454546 0.000000
v 0.636364 -0.818182 -0.000000
v 0.636364 -0.636364 -0.000000
v 0.636364 -0.454545 -0.000000
v 0.636364 -0.272727 -0.000000
v 0.636364 -0.090909 -0.000000
v 0.636364 0.090909 0.000000
v 0.636364 0.272727 0.000000
v 0.636364 0.454546 0.000000
v 0.818182 -0.818182 -0.000000
v 0.818182 -0.636364 -0.000000
v 0.818182 -0.454545 -0.000000
v 0.818182 -0.272727 -0.000000
v 0.818182 -0.090909 -0.000000
v 0.818182 0.090909 0.000000
v 0.818182 0.272727 0.000000
v -1.000000 0.272727 0.150000
v -1.000000 0.090909 0.150000
v -1.000000 -0.090909 0.150000
v -1.000000 -0.272727 0.150000
v -1.000000 -0.454546 0.150000
v -0.818182 -1.000000 0.150000
v -0.636364 -1.000000 0.150000
v 0.636364 -1.000000 0.150000
v 0.818182 -1.000000 0.150000
v 1.000000 -0.454546 0.150000
v 1.000000 -0.272727 0.150000
v 1.000000 -0.090909 0.150000
v 1.000000 0.090909 0.150000
v 1.000000 0.272727 0.150000
v -0.818182 -0.818182 0.150000
v -0.818182 -0.636364 0.150000
v -0.818182 -0.454546 0.150000
v -0.818182 -0.272727 0.150000
v -0.818182 -0.090909 0.150000
v -0.818182 0.090909 0.150000
v -0.818182 0.272727 0.150000
v -0.636364 -0.818182 0.150000
v -0.636364 -0.636364 0.150000
v -0.636364 -0.454546 0.150000
v -0.636364 -0.272727 0.150000
v -0.636364 -0.090909 0.150000
v -0.636364 0.090909 0.150000
v -0.636364 0.272727 0.150000
v -0.636364 0.454545 0.150000
v -0.454545 -0.818182 0.150000
v -0.454545 -0.636364 0.150000
v -0.454545 -0.454546 0.150000
v -0.454545 -0.272727 0.150000
v -0.454545 -0.090909 0.150000
v -0.454545 0.090909 0.150000
v -0.454545 0.272727 0.150000
v -0.454545 0.454545 0.150000
v -0.272727 -0.636364 0.150000
v -0.272727 -0.454546 0.150000
v -0.272727 -0.272727 0.150000
v -0.272727 -0.090909 0.150000
v -0.272727 0.090909 0.150000
v -0.272727 0.272727 0.150000
v -0.090909 -0.636364 0.150000
v -0.090909 -0.454546 0.150000
v -0.090909 -0.272727 0.150000
v -0.090909 -0.090909 0.150000
v -0.090909 0.090909 0.150000
v -0.090909 0.272727 0.150000
v 0.090909 -0.636364 0.150000
v 0.090909 -0.454546 0.150000
v 0.090909 -0.272727 0.150000
v 0.090909 -0.090909 0.150000
v 0.090909 0.090909 0.150000
v 0.090909 0.272727 0.150000
v 0.272727 -0.636364 0.150000
v 0.272727 -0.454546 0.150000
v 0.272727 -0.272727 0.150000
v 0.272727 -0.090909 0.150000
v 0.272727 0.090909 0.150000
v 0.272727 0.272727 0.150000
v 0.454545 -0.818182 0.150000
v 0.454545 -0.636364 0.150000
v 0.454545 -0.454546 0.150000
v 0.454545 -0.272727 0.150000
v 0.454545 -0.090909 0.150000
v 0.454545 0.090909 0.150000
v 0.454545 0.272727 0.150000
v 0.454545 0.454545 0.150000
v 0.636364 -0.818182 0.150000
v 0.636364 -0.636364 0.150000
v 0.636364 -0.454546 0.150000
v 0.636364 -0.272727 0.150000
v 0.636364 -0.090909 0.150000
v 0.636364 0.090909 0.150000
v 0.636364 0.272727 0.150000
v 0.636364 0.454545 0.150000
v 0.818182 -0.818182 0.150000
v 0.818182 -0.636364 0.150000
v 0.818182 -0.454546 0.150000
v 0.818182 -0.272727 0.150000
v 0.818182 -0.090909 0.150000
v 0.818182 0.090909 0.150000
v 0.818182 0.272727 0.150000
vn -0.0000 0.0000 -1.0000
vn 0.0000 -0.0000 1.0000
vn 0.0000 1.0000 0.0000
vn 0.0000 -1.0000 -0.0000
vn 1.0000 -0.0000 0.0000
vn -1.0000 0.0000 0.0000
usemtl Material.001
s off
f 5//1 4//1 18//1 17//1
f 4//1 3//1 19//1 18//1
f 3//1 2//1 20//1 19//1
f 2//1 1//1 21//1 20//1
f 6//1 15//1 22//1 7//1
f 16//1 17//1 24//1 23//1
f 17//1 18//1 25//1 24//1
f 18//1 19//1 26//1 25//1
f 22//1 23//1 31//1 30//1
f 23//1 24//1 32//1 31//1
f 24//1 25//1 33//1 32//1
f 25//1 26//1 34//1 33//1
f 26//1 27//1 35//1 34//1
f 28//1 29//1 37//1 36//1
f 31//1 32//1 39//1 38//1
f 32//1 33//1 40//1 39//1
f 34//1 35//1 42//1 41//1
f 35//1 36//1 43//1 42//1
f 38//1 39//1 45//1 44//1
f 39//1 40//1 46//1 45//1
f 40//1 41//1 47//1 46//1
f 41//1 42//1 48//1 47//1
f 42//1 43//1 49//1 48//1
f 44//1 45//1 51//1 50//1
f 45//1 46//1 52//1 51//1
f 46//1 47//1 53//1 52//1
f 47//1 48//1 54//1 53//1
f 48//1 49//1 55//1 54//1
f 50//1 51//1 57//1 56//1
f 51//1 52//1 58//1 57//1
f 52//1 53//1 59//1 58//1
f 53//1 54//1 60//1 59//1
f 54//1 55//1 61//1 60//1
f 56//1 57//1 64//1 63//1
f 57//1 58//1 65//1 64//1
f 59//1 60//1 67//1 66//1
f 60//1 61//1 68//1 67//1
f 62//1 63//1 71//1 70//1
f 63//1 64//1 72//1 71//1
f 64//1 65//1 73//1 72//1
f 65//1 66//1 74//1 73//1
f 66//1 67//1 75//1 74//1
f 68//1 69//1 77//1 76//1
f 8//1 70//1 78//1 9//1
f 71//1 72//1 80//1 79//1
f 72//1 73//1 81//1 80//1
f 73//1 74//1 82//1 81//1
f 80//1 81//1 11//1 10//1
f 81//1 82//1 12//1 11//1
f 82//1 83//1 13//1 12//1
f 83//1 84//1 14//1 13//1
f 89//2 101//2 102//2 88//2
f 88//2 102//2 103//2 87//2
f 87//2 103//2 104//2 86//2
f 86//2 104//2 105//2 85//2
f 90//2 91//2 106//2 99//2
f 100//2 107//2 108//2 101//2
f 101//2 108//2 109//2 102//2
f 102//2 109//2 110//2 103//2
f 106//2 114//2 115//2 107//2
f 107//2 115//2 116//2 108//2
f 108//2 116//2 117//2 109//2
f 109//2 117//2 118//2 110//2
f 110//2 118//2 119//2 111//2
f 112//2 120//2 121//2 113//2
f 115//2 122//2 123//2 116//2
f 116//2 123//2 124//2 117//2
f 118//2 125//2 126//2 119//2
f 119//2 126//2 127//2 120//2
f 122//2 128//2 129//2 123//2
f 123//2 129//2 130//2 124//2
f 124//2 130//2 131//2 125//2
f 125//2 131//2 132//2 126//2
f 126//2 132//2 133//2 127//2
f 128//2 134//2 135//2 129//2
f 129//2 135//2 136//2 130//2
f 130//2 136//2 137//2 131//2
f 131//2 137//2 138//2 132//2
f 132//2 138//2 139//2 133//2
f 134//2 140//2 141//2 135//2
f 135//2 141//2 142//2 136//2
f 136//2 142//2 143//2 137//2
f 137//2 143//2 144//2 138//2
f 138//2 144//2 145//2 139//2
f 140//2 147//2 148//2 141//2
f 141//2 148//2 149//2 142//2
f 143//2 150//2 151//2 144//2
f 144//2 151//2 152//2 145//2
f 146//2 154//2 155//2 147//2
f 147//2 155//2 156//2 148//2
f 148//2 156//2 157//2 149//2
f 149//2 157//2 158//2 150//2
f 150//2 158//2 159//2 151//2
f 152//2 160//2 161//2 153//2
f 92//2 93//2 162//2 154//2
f 155//2 163//2 164//2 156//2
f 156//2 164//2 165//2 157//2
f 157//2 165//2 166//2 158//2
f 164//2 94//2 95//2 165//2
f 165//2 95//2 96//2 166//2
f 166//2 96//2 97//2 167//2
f 167//2 97//2 98//2 168//2
f 75//3 67//3 151//3 159//3
f 68//4 76//4 160//4 152//4
f 77//3 69//3 153//3 161//3
f 49//3 43//3 127//3 133//3
f 58//5 59//5 143//5 142//5
f 27//6 26//6 110//6 111//6
f 78//3 70//3 154//3 162//3
f 44//4 50//4 134//4 128//4
f 21//3 1//3 85//3 105//3
f 29//6 28//6 112//6 113//6
f 71//4 79//4 163//4 155//4
f 22//3 15//3 99//3 106//3
f 30//5 31//5 115//5 114//5
f 16//4 23//4 107//4 100//4
f 63//6 62//6 146//6 147//6
f 82//3 74//3 158//3 166//3
f 33//5 34//5 118//5 117//5
f 80//4 10//4 94//4 164//4
f 1//6 2//6 86//6 85//6
f 55//3 49//3 133//3 139//3
f 26//3 19//3 103//3 110//3
f 66//6 65//6 149//6 150//6
f 2//6 3//6 87//6 86//6
f 50//4 56//4 140//4 134//4
f 22//4 30//4 114//4 106//4
f 36//6 35//6 119//6 120//6
f 3//6 4//6 88//6 87//6
f 67//5 68//5 152//5 151//5
f 36//5 37//5 121//5 120//5
f 4//6 5//6 89//6 88//6
f 69//6 68//6 152//6 153//6
f 14//3 84//3 168//3 98//3
f 6//4 7//4 91//4 90//4
f 70//6 8//6 92//6 154//6
f 8//4 9//4 93//4 92//4
f 70//5 71//5 155//5 154//5
f 41//6 40//6 124//6 125//6
f 10//5 11//5 95//5 94//5
f 61//3 55//3 139//3 145//3
f 35//3 27//3 111//3 119//3
f 11//5 12//5 96//5 95//5
f 56//4 63//4 147//4 140//4
f 28//4 36//4 120//4 112//4
f 12//5 13//5 97//5 96//5
f 37//3 29//3 113//3 121//3
f 13//5 14//5 98//5 97//5
f 65//3 58//3 142//3 149//3
f 31//4 38//4 122//4 115//4
f 74//5 75//5 159//5 158//5
f 15//6 6//6 90//6 99//6
f 59//4 66//4 150//4 143//4
f 76//5 77//5 161//5 160//5
f 17//6 16//6 100//6 101//6
f 40//3 33//3 117//3 124//3
f 9//5 78//5 162//5 93//5
f 68//3 61//3 145//3 152//3
f 34//4 41//4 125//4 118//4
f 79//5 80//5 164//5 163//5
f 62//4 70//4 154//4 146//4
f 19//5 20//5 104//5 103//5
f 43//3 36//3 120//3 127//3
f 20//5 21//5 105//5 104//5
f 38//4 44//4 128//4 122//4
f 83//6 82//6 166//6 167//6
f 7//5 22//5 106//5 91//5
f 84//6 83//6 167//6 168//6
f 23//6 22//6 106//6 107//6
f 5//4 17//4 101//4 89//4
