# Blender v2.79 (sub 0) OBJ File: 'nave.blend'
# www.blender.org
mtllib nave.mtl
o Plane
v -1.000000 0.000000 1.000000
v 1.000000 0.000000 1.000000
v -1.000000 0.000000 0.272727
v -1.000000 0.000000 0.454545
v -1.000000 0.000000 0.636364
v -1.000000 0.000000 0.818182
v -0.818182 0.000000 1.000000
v -0.636364 0.000000 1.000000
v -0.454545 0.000000 1.000000
v -0.272727 0.000000 1.000000
v -0.090909 0.000000 1.000000
v 0.090909 0.000000 1.000000
v 0.272727 0.000000 1.000000
v 0.454545 0.000000 1.000000
v 0.636364 0.000000 1.000000
v 0.818182 0.000000 1.000000
v 1.000000 0.000000 0.818182
v 1.000000 0.000000 0.636364
v 1.000000 0.000000 0.454545
v 1.000000 0.000000 0.272727
v -0.818182 0.000000 0.818182
v -0.818182 0.000000 0.636364
v -0.818182 0.000000 0.454545
v -0.818182 0.000000 0.272727
v -0.818182 0.000000 0.090909
v -0.636364 0.000000 0.818182
v -0.636364 0.000000 0.636364
v -0.636364 0.000000 0.454545
v -0.636364 0.000000 0.272727
v -0.636364 0.000000 0.090909
v -0.454545 0.000000 0.818182
v -0.454545 0.000000 0.636364
v -0.454545 0.000000 0.454545
v -0.454545 0.000000 0.272727
v -0.454545 0.000000 0.090909
v -0.272727 0.000000 0.818182
v -0.272727 0.000000 0.636364
v -0.272727 0.000000 0.454545
v -0.272727 0.000000 0.272727
v -0.272727 0.000000 0.090909
v -0.272727 0.000000 -0.090909
v -0.272727 0.000000 -0.272727
v -0.090909 0.000000 0.818182
v -0.090909 0.000000 0.636364
v -0.090909 0.000000 0.454545
v -0.090909 0.000000 0.272727
v -0.090909 0.000000 0.090909
v -0.090909 0.000000 -0.090909
v -0.090909 0.000000 -0.272727
v -0.090909 0.000000 -0.454545
v 0.090909 0.000000 0.818182
v 0.090909 0.000000 0.636364
v 0.090909 0.000000 0.454545
v 0.090909 0.000000 0.272727
v 0.090909 0.000000 0.090909
v 0.090909 0.000000 -0.090909
v 0.090909 0.000000 -0.272727
v 0.090909 0.000000 -0.454545
v 0.272727 0.000000 0.818182
v 0.272727 0.000000 0.636364
v 0.272727 0.000000 0.454545
v 0.272727 0.000000 0.272727
v 0.272727 0.000000 0.090909
v 0.272727 0.000000 -0.090909
v 0.272727 0.000000 -0.272727
v 0.454545 0.000000 0.818182
v 0.454545 0.000000 0.636364
v 0.454545 0.000000 0.454545
v 0.454545 0.000000 0.272727
v 0.454545 0.000000 0.090909
v 0.636364 0.000000 0.818182
v 0.636364 0.000000 0.636364
v 0.636364 0.000000 0.454545
v 0.636364 0.000000 0.272727
v 0.636364 0.000000 0.090909
v 0.818182 0.000000 0.818182
v 0.818182 0.000000 0.636364
v 0.818182 0.000000 0.454545
v 0.818182 0.000000 0.272727
v 0.818182 0.000000 0.090909
v -1.000000 0.150000 0.818182
v -1.000000 0.150000 1.000000
v 0.818182 0.150000 1.000000
v 1.000000 0.150000 1.000000
v -1.000000 0.150000 0.272727
v -1.000000 0.150000 0.454545
v -1.000000 0.150000 0.636364
v -0.818182 0.150000 1.000000
v -0.636364 0.150000 1.000000
v -0.454545 0.150000 1.000000
v -0.272727 0.150000 1.000000
v -0.090909 0.150000 1.000000
v 0.090909 0.150000 1.000000
v 0.272727 0.150000 1.000000
v 0.454545 0.150000 1.000000
v 0.636364 0.150000 1.000000
v 1.000000 0.150000 0.818182
v 1.000000 0.150000 0.636364
v 1.000000 0.150000 0.454545
v 1.000000 0.150000 0.272727
v -0.818182 0.150000 0.818182
v -0.818182 0.150000 0.636364
v -0.818182 0.150000 0.454545
v -0.818182 0.150000 0.272727
v -0.818182 0.150000 0.090909
v -0.636364 0.150000 0.818182
v -0.636364 0.150000 0.636364
v -0.636364 0.150000 0.454545
v -0.636364 0.150000 0.272727
v -0.636364 0.150000 0.090909
v -0.454545 0.150000 0.818182
v -0.454545 0.150000 0.636364
v -0.454545 0.150000 0.454545
v -0.454545 0.150000 0.272727
v -0.454545 0.150000 0.090909
v -0.272727 0.150000 0.818182
v -0.272727 0.150000 0.636364
v -0.272727 0.150000 0.454545
v -0.272727 0.150000 0.272727
v -0.272727 0.150000 0.090909
v -0.272727 0.150000 -0.090909
v -0.272727 0.150000 -0.272727
v -0.090909 0.150000 0.818182
v -0.090909 0.150000 0.636364
v -0.090909 0.150000 0.454545
v -0.090909 0.150000 0.272727
v -0.090909 0.150000 0.090909
v -0.090909 0.150000 -0.090909
v -0.090909 0.150000 -0.272727
v -0.090909 0.150000 -0.454545
v 0.090909 0.150000 0.818182
v 0.090909 0.150000 0.636364
v 0.090909 0.150000 0.454545
v 0.090909 0.150000 0.272727
v 0.090909 0.150000 0.090909
v 0.090909 0.150000 -0.090909
v 0.090909 0.150000 -0.272727
v 0.090909 0.150000 -0.454545
v 0.272727 0.150000 0.818182
v 0.272727 0.150000 0.636364
v 0.272727 0.150000 0.454545
v 0.272727 0.150000 0.272727
v 0.272727 0.150000 0.090909
v 0.272727 0.150000 -0.090909
v 0.272727 0.150000 -0.272727
v 0.454545 0.150000 0.818182
v 0.454545 0.150000 0.636364
v 0.454545 0.150000 0.454545
v 0.454545 0.150000 0.272727
v 0.454545 0.150000 0.090909
v 0.636364 0.150000 0.818182
v 0.636364 0.150000 0.636364
v 0.636364 0.150000 0.454545
v 0.636364 0.150000 0.272727
v 0.636364 0.150000 0.090909
v 0.818182 0.150000 0.818182
v 0.818182 0.150000 0.636364
v 0.818182 0.150000 0.454545
v 0.818182 0.150000 0.272727
v 0.818182 0.150000 0.090909
vn 0.0000 -1.0000 0.0000
vn 0.0000 1.0000 0.0000
vn 0.0000 0.0000 1.0000
vn 1.0000 0.0000 0.0000
vn -1.0000 0.0000 0.0000
vn 0.0000 0.0000 -1.0000
usemtl Material.001
s off
f 1//1 6//1 21//1 7//1
f 6//1 5//1 22//1 21//1
f 5//1 4//1 23//1 22//1
f 4//1 3//1 24//1 23//1
f 7//1 21//1 26//1 8//1
f 21//1 22//1 27//1 26//1
f 22//1 23//1 28//1 27//1
f 23//1 24//1 29//1 28//1
f 24//1 25//1 30//1 29//1
f 8//1 26//1 31//1 9//1
f 26//1 27//1 32//1 31//1
f 27//1 28//1 33//1 32//1
f 28//1 29//1 34//1 33//1
f 29//1 30//1 35//1 34//1
f 9//1 31//1 36//1 10//1
f 31//1 32//1 37//1 36//1
f 32//1 33//1 38//1 37//1
f 33//1 34//1 39//1 38//1
f 34//1 35//1 40//1 39//1
f 10//1 36//1 43//1 11//1
f 36//1 37//1 44//1 43//1
f 37//1 38//1 45//1 44//1
f 38//1 39//1 46//1 45//1
f 39//1 40//1 47//1 46//1
f 40//1 41//1 48//1 47//1
f 41//1 42//1 49//1 48//1
f 11//1 43//1 51//1 12//1
f 43//1 44//1 52//1 51//1
f 44//1 45//1 53//1 52//1
f 45//1 46//1 54//1 53//1
f 46//1 47//1 55//1 54//1
f 47//1 48//1 56//1 55//1
f 48//1 49//1 57//1 56//1
f 49//1 50//1 58//1 57//1
f 12//1 51//1 59//1 13//1
f 51//1 52//1 60//1 59//1
f 52//1 53//1 61//1 60//1
f 53//1 54//1 62//1 61//1
f 54//1 55//1 63//1 62//1
f 55//1 56//1 64//1 63//1
f 56//1 57//1 65//1 64//1
f 13//1 59//1 66//1 14//1
f 59//1 60//1 67//1 66//1
f 60//1 61//1 68//1 67//1
f 61//1 62//1 69//1 68//1
f 62//1 63//1 70//1 69//1
f 14//1 66//1 71//1 15//1
f 66//1 67//1 72//1 71//1
f 67//1 68//1 73//1 72//1
f 68//1 69//1 74//1 73//1
f 69//1 70//1 75//1 74//1
f 15//1 71//1 76//1 16//1
f 71//1 72//1 77//1 76//1
f 72//1 73//1 78//1 77//1
f 73//1 74//1 79//1 78//1
f 74//1 75//1 80//1 79//1
f 16//1 76//1 17//1 2//1
f 76//1 77//1 18//1 17//1
f 77//1 78//1 19//1 18//1
f 78//1 79//1 20//1 19//1
f 82//2 88//2 101//2 81//2
f 81//2 101//2 102//2 87//2
f 87//2 102//2 103//2 86//2
f 86//2 103//2 104//2 85//2
f 88//2 89//2 106//2 101//2
f 101//2 106//2 107//2 102//2
f 102//2 107//2 108//2 103//2
f 103//2 108//2 109//2 104//2
f 104//2 109//2 110//2 105//2
f 89//2 90//2 111//2 106//2
f 106//2 111//2 112//2 107//2
f 107//2 112//2 113//2 108//2
f 108//2 113//2 114//2 109//2
f 109//2 114//2 115//2 110//2
f 90//2 91//2 116//2 111//2
f 111//2 116//2 117//2 112//2
f 112//2 117//2 118//2 113//2
f 113//2 118//2 119//2 114//2
f 114//2 119//2 120//2 115//2
f 91//2 92//2 123//2 116//2
f 116//2 123//2 124//2 117//2
f 117//2 124//2 125//2 118//2
f 118//2 125//2 126//2 119//2
f 119//2 126//2 127//2 120//2
f 120//2 127//2 128//2 121//2
f 121//2 128//2 129//2 122//2
f 92//2 93//2 131//2 123//2
f 123//2 131//2 132//2 124//2
f 124//2 132//2 133//2 125//2
f 125//2 133//2 134//2 126//2
f 126//2 134//2 135//2 127//2
f 127//2 135//2 136//2 128//2
f 128//2 136//2 137//2 129//2
f 129//2 137//2 138//2 130//2
f 93//2 94//2 139//2 131//2
f 131//2 139//2 140//2 132//2
f 132//2 140//2 141//2 133//2
f 133//2 141//2 142//2 134//2
f 134//2 142//2 143//2 135//2
f 135//2 143//2 144//2 136//2
f 136//2 144//2 145//2 137//2
f 94//2 95//2 146//2 139//2
f 139//2 146//2 147//2 140//2
f 140//2 147//2 148//2 141//2
f 141//2 148//2 149//2 142//2
f 142//2 149//2 150//2 143//2
f 95//2 96//2 151//2 146//2
f 146//2 151//2 152//2 147//2
f 147//2 152//2 153//2 148//2
f 148//2 153//2 154//2 149//2
f 149//2 154//2 155//2 150//2
f 96//2 83//2 156//2 151//2
f 151//2 156//2 157//2 152//2
f 152//2 157//2 158//2 153//2
f 153//2 158//2 159//2 154//2
f 154//2 159//2 160//2 155//2
f 83//2 84//2 97//2 156//2
f 156//2 97//2 98//2 157//2
f 157//2 98//2 99//2 158//2
f 158//2 99//2 100//2 159//2
f 10//3 11//3 92//3 91//3
f 64//4 65//4 145//4 144//4
f 25//5 24//5 104//5 105//5
f 11//3 12//3 93//3 92//3
f 49//6 42//6 122//6 129//6
f 79//4 80//4 160//4 159//4
f 12//3 13//3 94//3 93//3
f 35//6 30//6 110//6 115//6
f 65//6 57//6 137//6 145//6
f 13//3 14//3 95//3 94//3
f 41//5 40//5 120//5 121//5
f 14//3 15//3 96//3 95//3
f 42//5 41//5 121//5 122//5
f 80//6 75//6 155//6 160//6
f 6//5 1//5 82//5 81//5
f 15//3 16//3 83//3 96//3
f 16//3 2//3 84//3 83//3
f 24//6 3//6 85//6 104//6
f 2//4 17//4 97//4 84//4
f 3//5 4//5 86//5 85//5
f 57//4 58//4 138//4 137//4
f 17//4 18//4 98//4 97//4
f 4//5 5//5 87//5 86//5
f 40//6 35//6 115//6 120//6
f 70//6 63//6 143//6 150//6
f 18//4 19//4 99//4 98//4
f 20//6 79//6 159//6 100//6
f 5//5 6//5 81//5 87//5
f 19//4 20//4 100//4 99//4
f 58//6 50//6 130//6 138//6
f 1//3 7//3 88//3 82//3
f 7//3 8//3 89//3 88//3
f 30//6 25//6 105//6 110//6
f 8//3 9//3 90//3 89//3
f 50//5 49//5 129//5 130//5
f 9//3 10//3 91//3 90//3
f 75//6 70//6 150//6 155//6
f 63//4 64//4 144//4 143//4
