# Blender v2.79 (sub 0) OBJ File: 'untitled.blend'
# www.blender.org
mtllib untitled.mtl
o Plane
v -0.200000 0.000000 1.000000
v 0.200000 0.000000 1.000000
v -0.600000 0.000000 0.600000
v -0.200000 0.000000 0.600000
v -0.200000 0.000000 0.200000
v 0.200000 0.000000 0.600000
v 0.200000 0.000000 0.200000
v 0.600000 0.000000 0.600000
v -0.333333 0.000000 1.000000
v -0.066667 0.000000 1.000000
v 0.066667 0.000000 1.000000
v 0.333333 0.000000 1.000000
v -0.600000 0.000000 0.866667
v -0.600000 0.000000 0.733333
v -0.600000 0.000000 0.466667
v -0.600000 0.000000 0.333333
v -0.200000 0.000000 0.866667
v -0.200000 0.000000 0.733333
v -0.200000 0.000000 0.466667
v -0.200000 0.000000 0.333333
v -0.200000 0.000000 0.066667
v 0.200000 0.000000 0.866667
v 0.200000 0.000000 0.733333
v 0.200000 0.000000 0.466667
v 0.200000 0.000000 0.333333
v 0.200000 0.000000 0.066667
v 0.600000 0.000000 0.866667
v 0.600000 0.000000 0.733333
v 0.600000 0.000000 0.466667
v 0.600000 0.000000 0.333333
v -0.733333 0.000000 0.600000
v -0.333333 0.000000 0.600000
v -0.466667 0.000000 0.600000
v -0.333333 0.000000 0.200000
v -0.466667 0.000000 0.200000
v 0.066667 0.000000 0.600000
v -0.066667 0.000000 0.600000
v 0.066667 0.000000 0.200000
v -0.066667 0.000000 0.200000
v 0.466667 0.000000 0.600000
v 0.333333 0.000000 0.600000
v 0.466667 0.000000 0.200000
v 0.333333 0.000000 0.200000
v 0.733333 0.000000 0.600000
v 0.733333 0.000000 0.466667
v 0.733333 0.000000 0.866667
v 0.733333 0.000000 0.733333
v 0.333333 0.000000 0.066667
v 0.333333 0.000000 -0.066667
v 0.466667 0.000000 0.066667
v 0.466667 0.000000 -0.066667
v 0.333333 0.000000 0.466667
v 0.333333 0.000000 0.333333
v 0.466667 0.000000 0.466667
v 0.466667 0.000000 0.333333
v 0.333333 0.000000 0.866667
v 0.333333 0.000000 0.733333
v 0.466667 0.000000 0.866667
v 0.466667 0.000000 0.733333
v -0.066667 0.000000 0.466667
v -0.066667 0.000000 0.333333
v 0.066667 0.000000 0.466667
v 0.066667 0.000000 0.333333
v -0.066667 0.000000 0.866667
v -0.066667 0.000000 0.733333
v 0.066667 0.000000 0.866667
v 0.066667 0.000000 0.733333
v -0.466667 0.000000 0.066667
v -0.466667 0.000000 -0.066667
v -0.333333 0.000000 0.066667
v -0.333333 0.000000 -0.066667
v -0.466667 0.000000 0.466667
v -0.466667 0.000000 0.333333
v -0.333333 0.000000 0.466667
v -0.333333 0.000000 0.333333
v -0.466667 0.000000 0.866667
v -0.466667 0.000000 0.733333
v -0.333333 0.000000 0.866667
v -0.333333 0.000000 0.733333
v -0.733333 0.000000 0.466667
v -0.733333 0.000000 0.866667
v -0.733333 0.000000 0.733333
v -0.333333 0.170795 1.000000
v -0.200000 0.170795 1.000000
v 0.066667 0.170795 1.000000
v 0.200000 0.170795 1.000000
v -0.600000 0.170795 0.733333
v -0.600000 0.170795 0.600000
v -0.200000 0.170795 0.733333
v -0.200000 0.170795 0.600000
v -0.200000 0.170795 0.333333
v -0.200000 0.170795 0.200000
v 0.200000 0.170795 0.733333
v 0.200000 0.170795 0.600000
v 0.200000 0.170795 0.333333
v 0.200000 0.170795 0.200000
v 0.600000 0.170795 0.733333
v 0.600000 0.170795 0.600000
v -0.466667 0.170795 0.600000
v -0.066667 0.170795 0.600000
v -0.066667 0.170795 0.200000
v 0.333333 0.170795 0.600000
v 0.333333 0.170795 0.200000
v 0.733333 0.170795 0.600000
v -0.066667 0.170795 1.000000
v 0.333333 0.170795 1.000000
v -0.600000 0.170795 0.866667
v -0.600000 0.170795 0.466667
v -0.600000 0.170795 0.333333
v -0.200000 0.170795 0.866667
v -0.200000 0.170795 0.466667
v -0.200000 0.170795 0.066667
v 0.200000 0.170795 0.866667
v 0.200000 0.170795 0.466667
v 0.200000 0.170795 0.066667
v 0.600000 0.170795 0.866667
v 0.600000 0.170795 0.466667
v 0.600000 0.170795 0.333333
v -0.733333 0.170795 0.600000
v -0.333333 0.170795 0.600000
v -0.333333 0.170795 0.200000
v -0.466667 0.170795 0.200000
v 0.066667 0.170795 0.600000
v 0.066667 0.170795 0.200000
v 0.466667 0.170795 0.600000
v 0.466667 0.170795 0.200000
v 0.733333 0.170795 0.466667
v 0.733333 0.170795 0.733333
v 0.733333 0.170795 0.866667
v 0.333333 0.170795 0.066667
v 0.333333 0.170795 -0.066667
v 0.466667 0.170795 0.066667
v 0.466667 0.170795 -0.066667
v 0.333333 0.170795 0.333333
v 0.333333 0.170795 0.466667
v 0.466667 0.170795 0.333333
v 0.466667 0.170795 0.466667
v 0.333333 0.170795 0.733333
v 0.333333 0.170795 0.866667
v 0.466667 0.170795 0.733333
v 0.466667 0.170795 0.866667
v -0.066667 0.170795 0.333333
v -0.066667 0.170795 0.466667
v 0.066667 0.170795 0.333333
v 0.066667 0.170795 0.466667
v -0.066667 0.170795 0.733333
v -0.066667 0.170795 0.866667
v 0.066667 0.170795 0.733333
v 0.066667 0.170795 0.866667
v -0.466667 0.170795 0.066667
v -0.466667 0.170795 -0.066667
v -0.333333 0.170795 0.066667
v -0.333333 0.170795 -0.066667
v -0.466667 0.170795 0.333333
v -0.466667 0.170795 0.466667
v -0.333333 0.170795 0.333333
v -0.333333 0.170795 0.466667
v -0.466667 0.170795 0.733333
v -0.466667 0.170795 0.866667
v -0.333333 0.170795 0.733333
v -0.333333 0.170795 0.866667
v -0.733333 0.170795 0.466667
v -0.733333 0.170795 0.733333
v -0.733333 0.170795 0.866667
vn 0.0000 -1.0000 0.0000
vn 0.0000 1.0000 0.0000
vn 0.0000 0.0000 -1.0000
vn 1.0000 0.0000 0.0000
vn -1.0000 0.0000 0.0000
vn 0.0000 0.0000 1.0000
usemtl Material.001
s off
f 82//1 31//1 3//1 14//1
f 79//1 32//1 4//1 18//1
f 75//1 34//1 5//1 20//1
f 67//1 36//1 6//1 23//1
f 63//1 38//1 7//1 25//1
f 8//1 29//1 45//1 44//1
f 28//1 8//1 44//1 47//1
f 27//1 28//1 47//1 46//1
f 7//1 26//1 48//1 43//1
f 48//1 49//1 51//1 50//1
f 25//1 7//1 43//1 53//1
f 53//1 43//1 42//1 55//1
f 6//1 24//1 52//1 41//1
f 41//1 52//1 54//1 40//1
f 52//1 53//1 55//1 54//1
f 40//1 54//1 29//1 8//1
f 54//1 55//1 30//1 29//1
f 23//1 6//1 41//1 57//1
f 57//1 41//1 40//1 59//1
f 2//1 22//1 56//1 12//1
f 56//1 57//1 59//1 58//1
f 20//1 5//1 39//1 61//1
f 61//1 39//1 38//1 63//1
f 4//1 19//1 60//1 37//1
f 19//1 20//1 61//1 60//1
f 37//1 60//1 62//1 36//1
f 60//1 61//1 63//1 62//1
f 36//1 62//1 24//1 6//1
f 62//1 63//1 25//1 24//1
f 18//1 4//1 37//1 65//1
f 65//1 37//1 36//1 67//1
f 1//1 17//1 64//1 10//1
f 11//1 66//1 22//1 2//1
f 68//1 69//1 71//1 70//1
f 34//1 70//1 21//1 5//1
f 73//1 35//1 34//1 75//1
f 3//1 15//1 72//1 33//1
f 15//1 16//1 73//1 72//1
f 33//1 72//1 74//1 32//1
f 72//1 73//1 75//1 74//1
f 32//1 74//1 19//1 4//1
f 77//1 33//1 32//1 79//1
f 76//1 77//1 79//1 78//1
f 9//1 78//1 17//1 1//1
f 31//1 80//1 15//1 3//1
f 81//1 82//1 14//1 13//1
f 163//2 87//2 88//2 119//2
f 160//2 89//2 90//2 120//2
f 156//2 91//2 92//2 121//2
f 148//2 93//2 94//2 123//2
f 144//2 95//2 96//2 124//2
f 98//2 104//2 127//2 117//2
f 97//2 128//2 104//2 98//2
f 116//2 129//2 128//2 97//2
f 96//2 103//2 130//2 115//2
f 130//2 132//2 133//2 131//2
f 95//2 134//2 103//2 96//2
f 134//2 136//2 126//2 103//2
f 94//2 102//2 135//2 114//2
f 102//2 125//2 137//2 135//2
f 135//2 137//2 136//2 134//2
f 125//2 98//2 117//2 137//2
f 137//2 117//2 118//2 136//2
f 93//2 138//2 102//2 94//2
f 138//2 140//2 125//2 102//2
f 86//2 106//2 139//2 113//2
f 139//2 141//2 140//2 138//2
f 91//2 142//2 101//2 92//2
f 142//2 144//2 124//2 101//2
f 90//2 100//2 143//2 111//2
f 111//2 143//2 142//2 91//2
f 100//2 123//2 145//2 143//2
f 143//2 145//2 144//2 142//2
f 123//2 94//2 114//2 145//2
f 145//2 114//2 95//2 144//2
f 89//2 146//2 100//2 90//2
f 146//2 148//2 123//2 100//2
f 84//2 105//2 147//2 110//2
f 85//2 86//2 113//2 149//2
f 150//2 152//2 153//2 151//2
f 121//2 92//2 112//2 152//2
f 154//2 156//2 121//2 122//2
f 88//2 99//2 155//2 108//2
f 108//2 155//2 154//2 109//2
f 99//2 120//2 157//2 155//2
f 155//2 157//2 156//2 154//2
f 120//2 90//2 111//2 157//2
f 158//2 160//2 120//2 99//2
f 159//2 161//2 160//2 158//2
f 83//2 84//2 110//2 161//2
f 119//2 88//2 108//2 162//2
f 164//2 107//2 87//2 163//2
f 73//3 16//3 109//3 154//3
f 55//4 42//4 126//4 136//4
f 8//5 28//5 97//5 98//5
f 19//3 74//3 157//3 111//3
f 52//3 24//3 114//3 135//3
f 34//3 35//3 122//3 121//3
f 3//6 33//6 99//6 88//6
f 75//6 20//6 91//6 156//6
f 25//6 53//6 134//6 95//6
f 33//5 77//5 158//5 99//5
f 10//4 64//4 147//4 105//4
f 39//3 5//3 92//3 101//3
f 77//5 76//5 159//5 158//5
f 7//3 38//3 124//3 96//3
f 66//5 11//5 85//5 149//5
f 38//3 39//3 101//3 124//3
f 78//5 9//5 83//5 161//5
f 64//3 17//3 110//3 147//3
f 30//3 55//3 136//3 118//3
f 40//6 8//6 98//6 125//6
f 78//4 79//4 160//4 161//4
f 18//6 65//6 146//6 89//6
f 1//6 10//6 105//6 84//6
f 76//6 78//6 161//6 159//6
f 65//6 67//6 148//6 146//6
f 12//4 56//4 139//4 106//4
f 42//3 43//3 103//3 126//3
f 2//6 12//6 106//6 86//6
f 22//3 66//3 149//3 113//3
f 57//5 56//5 139//5 138//5
f 44//4 45//4 127//4 104//4
f 13//4 14//4 87//4 107//4
f 17//3 78//3 161//3 110//3
f 67//6 23//6 93//6 148//6
f 59//4 40//4 125//4 140//4
f 45//3 29//3 117//3 127//3
f 79//6 18//6 89//6 160//6
f 69//5 68//5 150//5 151//5
f 58//4 59//4 140//4 141//4
f 47//4 44//4 104//4 128//4
f 16//5 15//5 108//5 109//5
f 80//5 31//5 119//5 162//5
f 70//5 34//5 121//5 152//5
f 56//3 22//3 113//3 139//3
f 46//4 47//4 128//4 129//4
f 15//3 80//3 162//3 108//3
f 70//4 71//4 153//4 152//4
f 23//6 57//6 138//6 93//6
f 27//6 46//6 129//6 116//6
f 31//5 82//5 163//5 119//5
f 68//6 70//6 152//6 150//6
f 56//6 58//6 141//6 139//6
f 20//5 19//5 111//5 91//5
f 82//5 81//5 164//5 163//5
f 71//3 69//3 151//3 153//3
f 43//4 48//4 130//4 103//4
f 5//4 21//4 112//4 92//4
f 81//6 13//6 107//6 164//6
f 21//3 70//3 152//3 112//3
f 49//5 48//5 130//5 131//5
f 35//5 73//5 154//5 122//5
f 50//4 51//4 133//4 132//4
f 48//3 26//3 115//3 130//3
f 24//4 25//4 95//4 114//4
f 48//6 50//6 132//6 130//6
f 26//5 7//5 96//5 115//5
f 9//6 1//6 84//6 83//6
f 51//3 49//3 131//3 133//3
f 28//5 27//5 116//5 97//5
f 11//6 2//6 86//6 85//6
f 14//4 3//4 88//4 87//4
f 74//4 75//4 156//4 157//4
f 29//4 30//4 118//4 117//4
f 53//5 52//5 135//5 134//5
